<svg xmlns="http://www.w3.org/2000/svg" width="18" height="18" fill="none">
    <path 
        fill="#999FA6" 
        fill-rule="evenodd" 
        d="M6.5 17.958h5c4.525 0 6.458-1.933 6.458-6.458v-5c0-4.525-1.933-6.458-6.458-6.458h-5C1.975.042.042 1.975.042 6.5v5c0 4.525 1.933 6.458 6.458 6.458ZM1.292 6.5c0-3.842 1.366-5.208 5.208-5.208h5c3.842 0 5.208 1.366 5.208 5.208v5c0 3.842-1.366 5.208-5.208 5.208h-5c-3.842 0-5.208-1.366-5.208-5.208v-5Zm7.266 4.742a.618.618 0 0 0 .442.183.618.618 0 0 0 .442-.183L12.383 8.3a.629.629 0 0 0 0-.883.629.629 0 0 0-.883 0L9 9.917l-2.5-2.5a.629.629 0 0 0-.883 0 .629.629 0 0 0 0 .883l2.941 2.942Z" clip-rule="evenodd"
    />
</svg>