<svg xmlns="http://www.w3.org/2000/svg" width="30" height="30" fill="none">
    <path 
        fill="#333" 
        fill-rule="evenodd" 
        d="M19 .667h-8C3.76.667.667 3.76.667 11v8C.667 26.24 3.76 29.333 11 29.333h8c7.24 0 10.333-3.093 10.333-10.333v-8C29.333 3.76 26.24.667 19 .667ZM27.333 19c0 6.147-2.186 8.333-8.333 8.333h-8c-6.147 0-8.333-2.186-8.333-8.333v-8c0-6.147 2.186-8.333 8.333-8.333h8c6.147 0 8.333 2.186 8.333 8.333v8Zm-11.626-7.587A.99.99 0 0 0 15 11.12a.99.99 0 0 0-.707.293L9.587 16.12a1.006 1.006 0 0 0 0 1.413 1.006 1.006 0 0 0 1.413 0l4-4 4 4a1.006 1.006 0 0 0 1.413 0 1.006 1.006 0 0 0 0-1.413l-4.706-4.707Z" 
        clip-rule="evenodd"
    />
</svg>